<?xml version="1.0" encoding="UTF-8" standalone="no"?><!DOCTYPE svg PUBLIC "-//W3C//DTD SVG 1.1//EN" "http://www.w3.org/Graphics/SVG/1.1/DTD/svg11.dtd"><svg width="100%" height="100%" viewBox="0 0 2134 2134" version="1.1" xmlns="http://www.w3.org/2000/svg" xmlns:xlink="http://www.w3.org/1999/xlink" xml:space="preserve" xmlns:serif="http://www.serif.com/" style="fill-rule:evenodd;clip-rule:evenodd;stroke-linejoin:round;stroke-miterlimit:2;"><path d="M283.427,1339.09c0,-5.525 -2.195,-10.824 -6.102,-14.731c-3.907,-3.907 -9.206,-6.102 -14.731,-6.102c-21.12,0 -56.626,0 -98.692,0c-58.85,0 -111.933,-35.372 -134.591,-89.685c-22.658,-54.313 -10.451,-116.922 30.951,-158.745c274.612,-277.405 706.253,-713.436 902.765,-911.945c27.39,-27.669 64.707,-43.237 103.64,-43.237c38.933,0 76.25,15.568 103.64,43.237c196.511,198.509 628.153,634.54 902.764,911.945c41.402,41.823 53.609,104.432 30.951,158.745c-22.658,54.313 -75.741,89.685 -134.591,89.685c-42.066,0 -77.571,0 -98.692,0c-5.525,0 -10.824,2.195 -14.731,6.102c-3.907,3.907 -6.102,9.206 -6.102,14.731c-0,89.316 -0,444.563 -0,648.412c-0,80.542 -65.292,145.833 -145.833,145.833c-122.514,0 -291.613,0 -381.75,0c-34.518,0 -62.5,-27.982 -62.5,-62.5c0,-120.341 0,-382.948 0,-503.289c0,-16.576 -6.585,-32.473 -18.306,-44.194c-11.721,-11.721 -27.618,-18.306 -44.194,-18.306c-71.934,-0 -189.379,-0 -261.313,-0c-16.576,-0 -32.473,6.585 -44.194,18.306c-11.721,11.721 -18.306,27.618 -18.306,44.194c0,120.341 0,382.948 0,503.289c0,34.518 -27.982,62.5 -62.5,62.5c-90.137,0 -259.236,0 -381.749,0c-80.542,0 -145.834,-65.291 -145.834,-145.833c0,-203.849 0,-559.096 0,-648.412Z" style="fill:#fff;"/></svg>