<?xml version="1.0" encoding="UTF-8" standalone="no"?><!DOCTYPE svg PUBLIC "-//W3C//DTD SVG 1.1//EN" "http://www.w3.org/Graphics/SVG/1.1/DTD/svg11.dtd"><svg width="100%" height="100%" viewBox="0 0 2134 2134" version="1.1" xmlns="http://www.w3.org/2000/svg" xmlns:xlink="http://www.w3.org/1999/xlink" xml:space="preserve" xmlns:serif="http://www.serif.com/" style="fill-rule:evenodd;clip-rule:evenodd;stroke-linejoin:round;stroke-miterlimit:2;"><g><path d="M1545.83,54.167c0,-14.366 -5.706,-28.144 -15.865,-38.302c-10.158,-10.158 -23.935,-15.865 -38.301,-15.865l-850,-0c-14.366,-0 -28.144,5.707 -38.302,15.865c-10.158,10.158 -15.865,23.936 -15.865,38.302l-0,162.5c-0,14.366 5.707,28.143 15.865,38.301c10.158,10.159 23.936,15.865 38.302,15.865l850,0c14.366,0 28.143,-5.706 38.301,-15.865c10.159,-10.158 15.865,-23.935 15.865,-38.301l0,-162.5Z" style="fill:#333;"/><rect x="737.5" y="0" width="658.333" height="937.5" style="fill:#333;"/><circle cx="1066.67" cy="1241.67" r="83.333" style="fill:#333;"/><circle cx="800" cy="1662.5" r="70.833" style="fill:#333;"/><path d="M1248.51,1325l480.661,0l253.415,506.83c32.29,64.581 28.84,141.277 -9.12,202.697c-37.96,61.42 -105.015,98.806 -177.219,98.806l-1459.15,0c-72.203,0 -139.259,-37.386 -177.219,-98.806c-37.959,-61.42 -41.41,-138.116 -9.12,-202.697l253.416,-506.83l480.661,0c31.624,68.826 101.189,116.667 181.839,116.667c80.65,-0 150.214,-47.841 181.839,-116.667Zm18.161,145.833c-36.795,0 -66.667,29.873 -66.667,66.667c0,36.794 29.872,66.667 66.667,66.667c36.794,-0 66.666,-29.873 66.666,-66.667c0,-36.794 -29.872,-66.667 -66.666,-66.667Zm200,133.334c-34.495,-0 -62.5,28.005 -62.5,62.5c-0,34.494 28.005,62.5 62.5,62.5c34.494,-0 62.5,-28.006 62.5,-62.5c-0,-34.495 -28.006,-62.5 -62.5,-62.5Zm-666.667,-137.5c-108.083,-0 -195.833,87.75 -195.833,195.833c-0,108.083 87.75,195.833 195.833,195.833c108.083,0 195.833,-87.75 195.833,-195.833c0,-108.083 -87.75,-195.833 -195.833,-195.833Zm400,270.833c-36.794,-0 -66.667,29.872 -66.667,66.667c0,36.794 29.873,66.666 66.667,66.666c36.794,0 66.667,-29.872 66.667,-66.666c-0,-36.795 -29.873,-66.667 -66.667,-66.667Zm-315.172,-579.167l-397.328,0l579.167,-1158.33l579.166,1158.33l-397.327,0c-31.625,-68.826 -101.189,-116.666 -181.839,-116.666c-80.65,-0 -150.215,47.84 -181.839,116.666Z" style="fill:#333;"/></g></svg>