<?xml version="1.0" encoding="UTF-8" standalone="no"?>
<!DOCTYPE svg PUBLIC "-//W3C//DTD SVG 1.1//EN" "http://www.w3.org/Graphics/SVG/1.1/DTD/svg11.dtd">
<svg width="100%" height="100%" viewBox="0 0 1000 1000" version="1.1" xmlns="http://www.w3.org/2000/svg" xmlns:xlink="http://www.w3.org/1999/xlink" xml:space="preserve" xmlns:serif="http://www.serif.com/" style="fill-rule:evenodd;clip-rule:evenodd;stroke-linecap:round;stroke-linejoin:round;stroke-miterlimit:1.5;">
    <g transform="matrix(1,0,0,1,-1100,0)">
        <g id="OBJECTS">
        </g>
        <g id="Artboard1" transform="matrix(1,0,0,1,1100,0)">
            <rect x="-0" y="0" width="1000" height="1000" style="fill:none;"/>
            <clipPath id="_clip1">
                <rect x="-0" y="0" width="1000" height="1000"/>
            </clipPath>
            <g clip-path="url(#_clip1)">
                <rect x="0" y="0" width="1000" height="1000" style="fill:rgb(0,227,133);"/>
                <g id="Logo-Icon--Green-" serif:id="Logo Icon [Green]" transform="matrix(0.405735,0,0,0.405321,-0.390511,-23.445)">
                    <g transform="matrix(2.69787,0,0,2.69787,-107.121,-76.6771)">
                        <path d="M361.833,218.807C357.832,210.516 350.458,204.352 341.594,201.889C332.731,199.426 323.238,200.904 315.54,205.944C304.688,213.049 292.723,220.884 282.861,227.341C270.597,235.371 265.356,250.719 270.143,264.583C286.004,310.517 320.634,410.809 333.789,448.908C337.07,458.411 335.7,468.905 330.089,477.244C310.76,505.972 264.93,574.085 242.628,607.232C235.059,618.48 235.394,633.283 243.464,644.176C271.599,682.159 336.03,769.14 360.413,802.057C366.444,810.199 375.971,815 386.097,815L653.845,815C661.367,815 668.649,812.345 674.409,807.503C691.948,792.492 728,756.977 728,718L728,646C728,646 742.025,625.133 753.67,607.808C757.733,601.763 759.227,594.349 757.823,587.2C756.419,580.051 752.231,573.755 746.184,569.7C712.915,547.39 651.579,506.259 619.606,484.818C607.479,476.686 602.393,461.365 607.246,447.585C622.782,403.471 656.218,308.529 671.754,264.415C676.607,250.635 671.521,235.314 659.394,227.182C649.303,220.415 636.947,212.129 625.766,204.632C618.045,199.454 608.455,197.895 599.494,200.362C590.533,202.828 583.087,209.075 579.095,217.477C556.748,264.515 516.042,350.194 491.463,401.928C487.689,409.872 479.696,414.944 470.908,414.971C462.12,414.998 454.096,409.975 450.273,402.054C425.413,350.543 384.288,265.333 361.833,218.807Z" style="fill:white;"/>
                    </g>
                    <g transform="matrix(2.69787,0,0,2.69787,-107.121,-76.6771)">
                        <path d="M361.833,218.807C357.832,210.516 350.458,204.352 341.594,201.889C332.731,199.426 323.238,200.904 315.54,205.944C304.688,213.049 292.723,220.884 282.861,227.341C270.597,235.371 265.356,250.719 270.143,264.583C286.004,310.517 320.634,410.809 333.789,448.908C337.07,458.411 335.7,468.905 330.089,477.244C310.76,505.972 264.93,574.085 242.628,607.232C235.059,618.48 235.394,633.283 243.464,644.176C271.599,682.159 336.03,769.14 360.413,802.057C366.444,810.199 375.971,815 386.097,815L652.901,815C660.944,815 668.691,811.966 674.598,806.504C692.214,790.002 728,752.311 728,718L728,646C728,646 742.025,625.133 753.67,607.808C757.733,601.763 759.227,594.349 757.823,587.2C756.419,580.051 752.231,573.755 746.184,569.7C712.915,547.39 651.579,506.259 619.606,484.818C607.479,476.686 602.393,461.365 607.246,447.585C622.782,403.471 656.218,308.529 671.754,264.415C676.607,250.635 671.521,235.314 659.394,227.182C649.303,220.415 636.947,212.129 625.766,204.632C618.045,199.454 608.455,197.895 599.494,200.362C590.533,202.828 583.087,209.075 579.095,217.477C556.748,264.515 516.042,350.194 491.463,401.928C487.689,409.872 479.696,414.944 470.908,414.971C462.12,414.998 454.096,409.975 450.273,402.054C425.413,350.543 384.288,265.333 361.833,218.807ZM496,626C496,626 555.108,537.05 583.771,493.917C587.806,487.846 594.088,483.632 601.232,482.207C608.376,480.781 615.792,482.261 621.844,486.319C652.42,506.823 702.854,540.643 702.854,540.643M611.328,435.995C611.328,435.995 604.36,456.112 597.147,470.073C589.341,485.182 577.101,503.955 577.101,503.955M339,464C339,464 449.101,518.475 505.584,546.421C513.824,550.498 519.913,557.927 522.297,566.813C524.68,575.7 523.128,585.183 518.037,592.844C513.657,599.434 509.221,606.108 505.49,611.722C499.562,620.641 489.57,626 478.869,626C444.415,626 370,626 370,626L489.253,626C493.702,626 498.102,626.929 502.171,628.728C516.211,634.935 549.33,649.578 549.33,649.578M339,464C339,464 459.368,523.557 512.954,550.071C527.371,557.204 544.837,552.509 553.744,539.106C565.543,521.353 579.734,500 579.734,500M327.44,430.52C327.44,430.52 331.423,442.055 334.713,451.584C337.46,459.539 343.227,466.091 350.765,469.821C365.56,477.141 389.05,488.763 389.05,488.763M521.197,588.089C521.197,588.089 518.076,592.785 514.031,598.871C509.552,605.61 508.274,613.984 510.539,621.753C512.804,629.523 518.38,635.894 525.776,639.164C540.087,645.491 556.903,652.926 569.876,658.661C582.081,664.057 596.395,659.871 603.778,648.746C620.765,623.148 650.741,577.977 668.829,550.721C677.182,538.134 673.795,521.157 661.254,512.747C649.302,504.732 637.093,496.545 637.093,496.545M496,626C496,626 615.2,678.644 664.74,700.522C676.977,705.927 691.324,701.699 698.686,690.52C711.065,671.72 728,646 728,646M496,626L370,626M647.335,692.836C647.335,692.836 634.319,687.098 620.8,681.138C613.399,677.875 607.816,671.507 605.544,663.738C603.272,655.969 604.543,647.592 609.018,640.849C621.426,622.152 654.57,572.207 668.712,550.898C672.744,544.822 679.027,540.603 686.174,539.175C693.32,537.746 700.74,539.225 706.794,543.285C724.033,554.845 744.723,568.72 744.723,568.72L702.854,540.643M295.967,527.957C295.967,527.957 311.069,505.513 323.379,487.216C332.324,473.922 349.713,469.301 364.067,476.403C391.7,490.074 432.291,510.157 432.291,510.157M415.561,330.131C415.561,330.131 447.247,395.784 462.709,427.822C464.238,430.99 467.448,432.999 470.963,432.988C474.478,432.978 477.676,430.949 479.185,427.771C494.415,395.715 525.574,330.131 525.574,330.131" style="fill:none;stroke:rgb(0,51,30);stroke-width:36.56px;"/>
                    </g>
                </g>
            </g>
        </g>
    </g>
</svg>
