<?xml version="1.0" encoding="UTF-8" standalone="no"?>
<!DOCTYPE svg PUBLIC "-//W3C//DTD SVG 1.1//EN" "http://www.w3.org/Graphics/SVG/1.1/DTD/svg11.dtd">
<svg width="100%" height="100%" viewBox="0 0 5000 1000" version="1.1" xmlns="http://www.w3.org/2000/svg" xmlns:xlink="http://www.w3.org/1999/xlink" xml:space="preserve" xmlns:serif="http://www.serif.com/" style="fill-rule:evenodd;clip-rule:evenodd;stroke-linejoin:round;stroke-miterlimit:2;">
    <g transform="matrix(1,0,0,1,-2232.25,0)">
        <g id="Artboard2" transform="matrix(3.47222,0,0,0.694444,-7574.08,0)">
            <rect x="2824.22" y="0" width="1440" height="1440" style="fill:none;"/>
            <clipPath id="_clip1">
                <rect x="2824.22" y="0" width="1440" height="1440"/>
            </clipPath>
            <g clip-path="url(#_clip1)">
                <g transform="matrix(0.37517,0,0,1.44,1550.9,0)">
                    <rect x="3393.99" y="0" width="3838.26" height="1000" style="fill:white;"/>
                    <clipPath id="_clip2">
                        <rect x="3393.99" y="0" width="3838.26" height="1000"/>
                    </clipPath>
                    <g clip-path="url(#_clip2)">
                        <g transform="matrix(0.767651,0,0,1,1680.4,0)">
                            <path d="M3082.25,0C3165.09,0 3232.25,67.157 3232.25,150L3232.25,850C3232.25,932.843 3165.09,1000 3082.25,1000L2232.25,1000L2232.25,0L3082.25,0Z" style="fill:rgb(42,231,153);"/>
                        </g>
                    </g>
                </g>
                <g transform="matrix(0.288,0,0,1.44,2824.22,0)">
                    <rect x="-0" y="0" width="1000" height="1000" style="fill:none;"/>
                    <g transform="matrix(0.980358,0,0,0.992643,-2756.26,0.919652)">
                        <path d="M3449,289.318C3449,327.503 3458.94,365.047 3477.87,398.345C3499.72,436.782 3520.34,473.2 3536.93,502.779C3571.87,565.081 3625.7,662.401 3673.88,749.76C3696.33,790.337 3695.45,839.598 3671.56,879.368C3647.68,919.138 3604.33,943.521 3557.51,943.521C3414.2,943.522 3228.73,943.522 3085.43,943.522C3038.61,943.522 2995.26,919.142 2971.38,879.378C2947.49,839.613 2946.61,790.356 2969.05,749.779C3017.21,662.415 3071.02,565.085 3105.96,502.779C3123.88,470.834 3146.5,430.917 3170.3,389.095C3185.83,361.801 3193.99,331.019 3193.99,299.71C3193.99,234.315 3193.99,125 3193.99,125L3449,125L3449,289.318ZM3377.6,289.318L3377.6,195.519L3265.39,195.519C3265.39,229.488 3265.39,269.336 3265.39,299.71C3265.39,343.12 3254.08,385.801 3232.55,423.645L3232.55,423.651C3208.82,465.329 3186.28,505.11 3168.43,536.946C3133.55,599.139 3079.83,696.292 3031.76,783.498C3031.75,783.526 3031.73,783.555 3031.72,783.583C3021.36,802.311 3021.76,825.045 3032.79,843.398C3043.81,861.751 3063.82,873.003 3085.43,873.003C3228.73,873.003 3414.2,873.003 3557.51,873.003C3579.12,873.003 3599.13,861.749 3610.15,843.393C3621.17,825.038 3621.58,802.302 3611.22,783.575C3611.2,783.547 3611.19,783.519 3611.17,783.491C3563.08,696.286 3509.34,599.137 3474.47,536.946C3457.94,507.469 3437.39,471.177 3415.61,432.874L3415.6,432.862C3390.69,389.022 3377.6,339.592 3377.6,289.318Z" style="fill:white;"/>
                    </g>
                    <g transform="matrix(0.695941,0,0,0.786323,-1961.92,-18.9218)">
                        <path d="M3717.16,103.547C3766.76,103.547 3806.96,139.134 3806.96,183.031L3806.96,183.031C3806.96,226.929 3766.76,262.515 3717.16,262.515C3617.49,262.515 3457.59,262.515 3357.93,262.515C3334.11,262.515 3311.27,254.141 3294.43,239.236C3277.59,224.33 3268.12,204.114 3268.12,183.034L3268.12,183.029C3268.12,161.949 3277.59,141.733 3294.43,126.827C3311.27,111.921 3334.11,103.547 3357.93,103.547L3717.16,103.547Z" style="fill:white;"/>
                    </g>
                    <g transform="matrix(1.75781,0,0,1.75781,-5732.25,-457.564)">
                        <path d="M3425.25,544.747L3665.61,544.747C3665.61,544.747 3705.28,617.436 3741.75,684.248C3754.26,707.162 3753.76,734.973 3740.43,757.423C3727.11,779.873 3702.94,793.636 3676.83,793.636L3414.05,793.636C3387.95,793.636 3363.78,779.876 3350.46,757.429C3337.13,734.982 3336.63,707.174 3349.13,684.26C3385.59,617.444 3425.25,544.747 3425.25,544.747Z" style="fill:white;fill-opacity:0.8;"/>
                    </g>
                    <g transform="matrix(1.31568,0,0,1.31568,-3970.03,-227.962)">
                        <path d="M3397.49,591.302L3423.09,670.08L3505.92,670.08L3438.91,718.768L3464.5,797.547L3397.49,748.859L3330.48,797.547L3356.07,718.768L3289.06,670.08L3371.89,670.08L3397.49,591.302Z" style="fill:rgb(0,227,133);fill-opacity:0.8;"/>
                    </g>
                </g>
                <g transform="matrix(0.288,0,0,1.44,2181.33,0)">
                    <path d="M7082.25,-0C7165.09,0 7232.25,67.157 7232.25,150L7232.25,850C7232.25,932.843 7165.09,1000 7082.25,1000L3232.25,1000L3232.25,-0L7082.25,-0Z" style="fill:white;"/>
                </g>
                <g transform="matrix(0.288,0,0,1.44,2088.55,274.975)">
                    <path d="M3742.41,63.845C3742.41,47.277 3755.84,33.845 3772.41,33.845L4162.81,33.845C4179.38,33.845 4192.81,47.277 4192.81,63.845L4192.81,131.845C4192.81,148.414 4179.38,161.845 4162.81,161.845L3772.41,161.845C3755.84,161.845 3742.41,148.414 3742.41,131.845L3742.41,63.845ZM3887.21,223.845C3887.21,207.277 3900.64,193.845 3917.21,193.845C3945.8,193.845 3988.62,193.845 4017.21,193.845C4033.78,193.845 4047.21,207.277 4047.21,223.845C4047.21,296.554 4047.21,481.537 4047.21,554.245C4047.21,570.814 4033.78,584.245 4017.21,584.245C3988.62,584.245 3945.8,584.245 3917.21,584.245C3900.64,584.245 3887.21,570.814 3887.21,554.245C3887.21,481.537 3887.21,296.554 3887.21,223.845Z" style="fill:rgb(42,231,153);fill-rule:nonzero;"/>
                    <path d="M4207.21,63.845C4207.21,47.277 4220.64,33.845 4237.21,33.845L4627.61,33.845C4644.18,33.845 4657.61,47.277 4657.61,63.845L4657.61,131.845C4657.61,148.414 4644.18,161.845 4627.61,161.845L4237.21,161.845C4220.64,161.845 4207.21,148.414 4207.21,131.845L4207.21,63.845ZM4352.01,223.845C4352.01,207.277 4365.44,193.845 4382.01,193.845C4410.6,193.845 4453.41,193.845 4482.01,193.845C4498.58,193.845 4512.01,207.277 4512.01,223.845C4512.01,296.554 4512.01,481.537 4512.01,554.245C4512.01,570.814 4498.58,584.245 4482.01,584.245C4453.41,584.245 4410.6,584.245 4382.01,584.245C4365.44,584.245 4352.01,570.814 4352.01,554.245C4352.01,481.537 4352.01,296.554 4352.01,223.845Z" style="fill:rgb(42,231,153);fill-rule:nonzero;"/>
                    <path d="M4716.81,63.845C4716.81,47.277 4730.24,33.845 4746.81,33.845C4775.4,33.845 4818.22,33.845 4846.81,33.845C4863.38,33.845 4876.81,47.277 4876.81,63.845C4876.81,159.768 4876.81,458.323 4876.81,554.245C4876.81,570.814 4863.38,584.245 4846.81,584.245C4818.22,584.245 4775.4,584.245 4746.81,584.245C4730.24,584.245 4716.81,570.814 4716.81,554.245C4716.81,458.323 4716.81,159.768 4716.81,63.845ZM4910.41,309.845C4910.41,304.753 4912.43,299.87 4916.03,296.269C4919.63,292.668 4924.52,290.645 4929.61,290.645C4929.61,290.645 4929.61,290.645 4929.61,290.645C4946.67,290.645 4959.34,289.979 4967.61,288.645C4975.81,287.322 4982.31,284.293 4987.09,279.558C4987.24,279.412 4987.39,279.268 4987.55,279.127C4992.15,274.875 4995.11,268.712 4996.41,260.645C4997.74,252.379 4998.41,239.979 4998.41,223.445C4998.41,206.912 4997.74,194.512 4996.41,186.245C4995.33,179.568 4993.12,174.022 4989.78,169.606C4988.25,167.57 4986.39,165.803 4984.27,164.378C4979.81,161.369 4974.12,159.326 4967.21,158.245C4958.67,156.912 4946.14,156.245 4929.61,156.245C4929.61,156.245 4929.61,156.245 4929.61,156.245C4924.52,156.245 4919.63,154.222 4916.03,150.622C4912.43,147.021 4910.41,142.137 4910.41,137.045L4910.41,63.845C4910.41,55.889 4913.57,48.258 4919.19,42.632C4924.82,37.006 4932.45,33.845 4940.41,33.845C4958,33.845 4976.81,33.845 4976.81,33.845C5016.27,33.845 5048.41,37.712 5073.21,45.445C5097.93,53.155 5116.69,64.973 5129.49,80.899C5129.53,80.947 5129.57,80.996 5129.61,81.044C5141.87,95.979 5150.14,114.779 5154.41,137.445C5158.67,160.112 5160.81,188.779 5160.81,223.445C5160.81,256.512 5158.81,283.979 5154.81,305.845C5150.81,327.711 5142.94,346.111 5131.21,361.044C5131.21,361.044 5131.21,361.045 5131.21,361.045C5117.87,378.112 5098.81,391.045 5074.01,399.845C5049.21,408.645 5016.81,413.045 4976.81,413.045C4976.81,413.045 4958,413.045 4940.41,413.045C4932.45,413.045 4924.82,409.885 4919.19,404.258C4913.57,398.632 4910.41,391.002 4910.41,383.045L4910.41,309.845Z" style="fill:rgb(42,231,153);fill-rule:nonzero;"/>
                    <path d="M5440.81,63.845C5440.81,47.277 5454.24,33.845 5470.81,33.845C5499.4,33.845 5542.22,33.845 5570.81,33.845C5587.38,33.845 5600.81,47.277 5600.81,63.845C5600.81,159.768 5600.81,458.323 5600.81,554.245C5600.81,570.814 5587.38,584.245 5570.81,584.245C5542.22,584.245 5499.4,584.245 5470.81,584.245C5454.24,584.245 5440.81,570.814 5440.81,554.245C5440.81,458.323 5440.81,159.768 5440.81,63.845ZM5634.41,485.445C5634.41,468.877 5647.84,455.445 5664.41,455.445C5695.66,455.445 5744.35,455.445 5775.61,455.445C5792.18,455.445 5805.61,468.877 5805.61,485.445L5805.61,554.245C5805.61,570.814 5792.18,584.245 5775.61,584.245L5664.41,584.245C5647.84,584.245 5634.41,570.814 5634.41,554.245L5634.41,485.445Z" style="fill:rgb(42,231,153);fill-rule:nonzero;"/>
                    <path d="M5865.21,584.245C5855.53,584.245 5846.43,579.566 5840.8,571.681C5835.17,563.796 5833.69,553.676 5836.84,544.511C5866.88,456.916 5939.45,245.356 5981.15,123.8C5985.4,111.417 5997.19,103.218 6010.27,103.543C6023.36,103.869 6034.73,112.644 6038.35,125.223C6052.08,172.816 6067.16,225.126 6072.86,244.886C6074.39,250.221 6074.42,255.878 6072.94,261.227C6061.23,303.373 6007.57,496.544 5989.31,562.275C5985.7,575.259 5973.88,584.245 5960.4,584.245C5935.68,584.245 5895.66,584.245 5865.21,584.245ZM6184.64,508.372C6180.95,495.509 6169.19,486.645 6155.8,486.645C6136.22,486.645 6107.43,486.645 6084.09,486.645C6074.73,486.645 6065.92,482.286 6060.24,474.855C6054.57,467.424 6052.68,457.772 6055.14,448.752C6060.79,428.035 6067.59,403.098 6072.38,385.552C6075.94,372.5 6087.79,363.445 6101.32,363.445C6101.75,363.445 6102.18,363.445 6102.61,363.445C6112.03,363.445 6120.9,359.023 6126.57,351.503C6132.23,343.984 6134.04,334.238 6131.45,325.185C6113.28,261.755 6077.13,135.536 6058.97,72.105C6056.37,63.052 6058.18,53.307 6063.85,45.787C6069.52,38.267 6078.39,33.845 6087.81,33.845C6115.05,33.845 6150.15,33.845 6172.47,33.845C6185.54,33.845 6197.1,42.298 6201.06,54.746C6227.15,136.716 6322.75,437.044 6357.16,545.146C6360.07,554.266 6358.44,564.225 6352.79,571.951C6347.14,579.678 6338.15,584.245 6328.57,584.245C6297.04,584.245 6254.67,584.245 6229.01,584.245C6215.63,584.245 6203.86,575.382 6200.17,562.518C6195.55,546.393 6189.27,524.498 6184.64,508.372Z" style="fill:rgb(42,231,153);fill-rule:nonzero;"/>
                    <path d="M6423.21,63.845C6423.21,47.277 6436.64,33.845 6453.21,33.845C6481.8,33.845 6524.61,33.845 6553.21,33.845C6569.78,33.845 6583.21,47.277 6583.21,63.845C6583.21,159.768 6583.21,458.323 6583.21,554.245C6583.21,570.814 6569.78,584.245 6553.21,584.245C6524.61,584.245 6481.8,584.245 6453.21,584.245C6436.64,584.245 6423.21,570.814 6423.21,554.245C6423.21,458.323 6423.21,159.768 6423.21,63.845ZM6616.81,491.845C6616.81,483.889 6619.97,476.258 6625.59,470.632C6631.22,465.006 6638.85,461.845 6646.81,461.845C6648.54,461.845 6649.61,461.845 6649.61,461.845C6664.54,461.845 6675.87,461.445 6683.61,460.645C6691.34,459.845 6697.07,457.845 6700.81,454.645C6704.54,451.445 6707.07,446.912 6708.41,441.045C6709.74,435.179 6710.41,426.645 6710.41,415.445C6710.41,403.712 6709.74,394.912 6708.41,389.045C6707.22,383.797 6705.06,379.615 6701.95,376.501C6701.42,375.977 6700.85,375.488 6700.26,375.037C6693.49,369.971 6676.6,367.445 6649.61,367.445C6649.61,367.445 6648.54,367.445 6646.81,367.445C6638.85,367.445 6631.22,364.285 6625.59,358.658C6619.97,353.032 6616.81,345.402 6616.81,337.445C6616.81,317.793 6616.81,292.281 6616.81,273.045C6616.81,257.581 6629.34,245.045 6644.81,245.045C6644.81,245.045 6644.81,245.045 6644.81,245.045C6659.74,245.045 6671.07,244.645 6678.81,243.845C6686.54,243.045 6692.27,241.045 6696.01,237.845C6699.74,234.645 6702.27,230.245 6703.61,224.645C6704.94,219.045 6705.61,211.179 6705.61,201.045C6705.61,190.379 6704.94,182.245 6703.61,176.645C6702.27,171.045 6699.74,166.645 6696.01,163.445C6692.27,160.245 6686.54,158.245 6678.81,157.445C6671.07,156.645 6659.74,156.245 6644.81,156.245C6644.81,156.245 6644.81,156.245 6644.81,156.245C6629.34,156.245 6616.81,143.709 6616.81,128.245C6616.81,109.009 6616.81,83.497 6616.81,63.845C6616.81,55.889 6619.97,48.258 6625.59,42.632C6631.22,37.006 6638.85,33.845 6646.81,33.845C6673.38,33.845 6708.01,33.845 6708.01,33.845C6815.21,33.845 6868.81,79.979 6868.81,172.245C6868.81,211.179 6861.21,240.512 6846.01,260.245C6831.14,279.549 6807.72,293.239 6775.75,301.315C6774.49,301.632 6773.61,302.766 6773.61,304.065C6773.61,304.245 6773.61,304.412 6773.61,304.556C6773.61,304.842 6773.81,305.091 6774.08,305.156C6808.28,313.109 6832.83,325.497 6847.72,342.32C6847.92,342.54 6848.11,342.763 6848.3,342.989C6865.17,363.267 6873.61,394.619 6873.61,437.045C6873.61,486.112 6860.54,522.912 6834.41,547.445C6808.27,571.979 6766.41,584.245 6708.81,584.245C6708.81,584.245 6673.65,584.245 6646.81,584.245C6638.85,584.245 6631.22,581.085 6625.59,575.458C6619.97,569.832 6616.81,562.202 6616.81,554.245C6616.81,535.267 6616.81,510.824 6616.81,491.845Z" style="fill:rgb(42,231,153);fill-rule:nonzero;"/>
                    <path d="M7338.41,126.922C7338.41,135.405 7334.82,143.491 7328.52,149.179C7322.23,154.867 7313.82,157.625 7305.38,156.77C7289.44,155.237 7269.72,153.48 7246.22,151.497C7245.81,151.462 7245.4,151.436 7244.99,151.419C7220.74,150.37 7201.22,149.845 7186.41,149.845C7178.34,149.845 7170.45,149.94 7162.76,150.128C7154.67,150.33 7146.85,147.261 7141.07,141.616C7135.28,135.971 7132.01,128.228 7132.01,120.144C7132.01,97.323 7132.01,67.081 7132.01,47.445C7132.01,36.4 7140.96,27.445 7152.01,27.445C7152.01,27.445 7152.01,27.445 7152.01,27.445C7195.66,27.445 7240.9,30.367 7287.74,36.212C7287.92,36.234 7288.1,36.258 7288.28,36.284C7296.19,37.417 7304.62,38.774 7313.57,40.355C7327.93,42.864 7338.4,55.329 7338.4,69.902C7338.41,86.574 7338.41,108.726 7338.41,126.922ZM7206.41,421.845C7206.41,421.845 7206.41,421.845 7206.41,421.845C7206.41,410.645 7205.61,402.512 7204.01,397.445C7202.41,392.379 7199.74,388.912 7196.01,387.045C7192.28,385.181 7185.89,383.716 7176.84,382.65C7176.83,382.648 7176.82,382.647 7176.81,382.645C7176.77,382.641 7082.7,371.168 7078.55,370.662C7078.44,370.649 7078.32,370.636 7078.21,370.624C7020.33,364.219 6981.24,345.369 6960.95,314.074C6960.85,313.917 6960.75,313.762 6960.65,313.607C6951.67,300.318 6945.59,284.131 6942.41,265.045C6939.21,245.845 6937.61,222.379 6937.61,194.645C6937.61,135.463 6952.8,92.805 6983.18,66.669C6983.19,66.661 6983.2,66.653 6983.21,66.645C7001.83,50.452 7028.44,39.328 7063.05,33.276C7071.79,31.686 7080.79,34.059 7087.61,39.754C7094.44,45.449 7098.38,53.878 7098.38,62.766C7098.41,109.91 7098.41,189.813 7098.41,189.845C7098.41,189.845 7098.41,189.845 7098.41,189.845C7098.41,196.779 7098.67,202.645 7099.21,207.445C7099.74,212.214 7100.79,215.929 7102.38,218.592C7102.47,218.747 7102.56,218.903 7102.64,219.062C7104.25,222.046 7106.84,224.171 7110.41,225.445C7114.07,226.754 7119.53,227.677 7126.79,228.215C7127.06,228.235 7127.33,228.262 7127.6,228.295C7134.61,229.157 7231.99,241.153 7237.38,241.817C7237.54,241.837 7237.7,241.858 7237.87,241.881C7260.68,245.075 7279.26,249.063 7293.61,253.845C7307.85,258.591 7320,265.944 7330.06,275.903C7330.29,276.13 7330.52,276.36 7330.74,276.594C7354.52,301.725 7366.41,346.142 7366.41,409.845C7366.41,477.564 7351.48,525.024 7321.63,552.227C7321.61,552.238 7321.6,552.249 7321.59,552.261C7308.26,564.519 7292.13,573.448 7273.21,579.045C7263.47,581.926 7252.85,584.277 7241.35,586.099C7232.67,587.551 7223.79,585.111 7217.08,579.426C7210.36,573.742 7206.49,565.39 7206.49,556.592C7206.41,507.631 7206.41,421.879 7206.41,421.845ZM7164.01,590.645C7164.01,590.645 7164.01,590.645 7164.01,590.645C7110.71,590.645 7061.15,588.249 7015.31,583.456C7015.24,583.449 7015.18,583.442 7015.11,583.436C7001.58,582.109 6989.7,580.781 6979.48,579.454C6964.65,577.392 6953.62,564.719 6953.62,549.754C6953.61,532.519 6953.61,509.673 6953.61,491.171C6953.61,482.806 6957.1,474.821 6963.24,469.143C6969.38,463.465 6977.62,460.608 6985.95,461.263C7009.02,463.049 7034.12,464.835 7061.25,466.622C7061.49,466.637 7061.73,466.65 7061.97,466.66C7087.38,467.717 7105.39,468.245 7116.01,468.245C7125.65,468.245 7134.18,468.156 7141.61,467.977C7149.75,467.649 7157.69,470.658 7163.57,476.308C7169.45,481.958 7172.77,489.761 7172.77,497.917C7172.81,525.913 7172.81,564.672 7172.81,581.847C7172.81,586.706 7168.87,590.645 7164.01,590.645Z" style="fill:rgb(42,231,153);fill-rule:nonzero;"/>
                </g>
            </g>
        </g>
    </g>
</svg>
