<?xml version="1.0" encoding="UTF-8" standalone="no"?><!DOCTYPE svg PUBLIC "-//W3C//DTD SVG 1.1//EN" "http://www.w3.org/Graphics/SVG/1.1/DTD/svg11.dtd"><svg width="100%" height="100%" viewBox="0 0 4167 4167" version="1.1" xmlns="http://www.w3.org/2000/svg" xmlns:xlink="http://www.w3.org/1999/xlink" xml:space="preserve" xmlns:serif="http://www.serif.com/" style="fill-rule:evenodd;clip-rule:evenodd;stroke-linecap:round;stroke-linejoin:round;stroke-miterlimit:1.5;"><rect id="Logo-Classic" serif:id="Logo Classic" x="0" y="0" width="4166.67" height="4166.67" style="fill:none;"/><clipPath id="_clip1"><rect id="Logo-Classic1" serif:id="Logo Classic" x="0" y="0" width="4166.67" height="4166.67"/></clipPath><g clip-path="url(#_clip1)"><ellipse cx="2083.33" cy="2083.33" rx="2083.33" ry="2083.33" style="fill:#3cdc71;"/><g id="Logo-Icon" serif:id="Logo Icon"><path d="M1463.4,769.757c-18.25,-37.775 -51.884,-65.861 -92.308,-77.081c-40.425,-11.221 -83.723,-4.488 -118.832,18.476c-49.493,32.373 -104.067,68.069 -149.047,97.491c-55.935,36.586 -79.839,106.514 -58.004,169.685c72.338,209.286 230.283,666.243 290.282,839.83c14.966,43.298 8.716,91.112 -16.875,129.108c-88.159,130.891 -297.183,441.233 -398.902,592.258c-34.519,51.251 -32.991,118.693 3.814,168.328c128.322,173.058 422.184,569.368 533.392,719.345c27.507,37.097 70.96,58.972 117.143,58.972l1221.18,0c34.308,0 67.518,-12.095 93.79,-34.16c79.994,-68.39 244.424,-230.206 244.424,-407.797l0,-328.051c0,0 63.969,-95.076 117.079,-174.012c18.531,-27.542 25.345,-61.324 18.94,-93.896c-6.404,-32.572 -25.502,-61.258 -53.081,-79.734c-151.74,-101.651 -431.485,-289.053 -577.313,-386.744c-55.311,-37.053 -78.507,-106.859 -56.372,-169.646c70.856,-200.992 223.356,-633.574 294.213,-834.567c22.134,-62.786 -1.062,-132.593 -56.372,-169.645c-46.024,-30.832 -102.379,-68.584 -153.372,-102.745c-35.217,-23.591 -78.955,-30.693 -119.827,-19.456c-40.872,11.238 -74.831,39.703 -93.037,77.982c-101.926,214.32 -287.58,604.692 -399.681,840.407c-17.215,36.197 -53.67,59.306 -93.751,59.428c-40.081,0.123 -76.678,-22.762 -94.114,-58.852c-113.387,-234.698 -300.952,-622.937 -403.367,-834.924Z" style="fill:#fff;"/><path d="M1463.4,769.757c-18.25,-37.775 -51.884,-65.861 -92.308,-77.081c-40.425,-11.221 -83.723,-4.488 -118.832,18.476c-49.493,32.373 -104.067,68.069 -149.047,97.491c-55.935,36.586 -79.839,106.514 -58.004,169.685c72.338,209.286 230.283,666.243 290.282,839.83c14.966,43.298 8.716,91.112 -16.875,129.108c-88.159,130.891 -297.183,441.233 -398.902,592.258c-34.519,51.251 -32.991,118.693 3.814,168.328c128.322,173.058 422.184,569.368 533.392,719.345c27.507,37.097 70.96,58.972 117.143,58.972c241.005,0 1004.66,0 1216.87,0c36.68,0 72.014,-13.822 98.957,-38.711c80.344,-75.185 243.561,-246.915 243.561,-403.246l0,-328.051c0,0 63.969,-95.076 117.079,-174.012c18.531,-27.542 25.345,-61.324 18.94,-93.896c-6.404,-32.572 -25.502,-61.258 -53.081,-79.734c-151.74,-101.651 -431.485,-289.053 -577.313,-386.744c-55.311,-37.053 -78.507,-106.859 -56.372,-169.646c70.856,-200.992 223.356,-633.574 294.213,-834.567c22.134,-62.786 -1.062,-132.593 -56.372,-169.645c-46.024,-30.832 -102.379,-68.584 -153.372,-102.745c-35.217,-23.591 -78.955,-30.693 -119.827,-19.456c-40.872,11.238 -74.831,39.703 -93.037,77.982c-101.926,214.32 -287.58,604.692 -399.681,840.407c-17.215,36.197 -53.67,59.306 -93.751,59.428c-40.081,0.123 -76.678,-22.762 -94.114,-58.852c-113.387,-234.698 -300.952,-622.937 -403.367,-834.924Zm611.923,1855.28c-0,0 269.589,-405.278 400.317,-601.804c18.4,-27.661 47.056,-46.86 79.637,-53.356c32.581,-6.495 66.408,0.246 94.01,18.737c139.456,93.422 369.48,247.516 369.48,247.516m-417.444,-476.804c0,-0 -31.781,91.655 -64.679,155.269c-35.599,68.838 -91.426,154.371 -91.426,154.371m-1085.96,-182.043c0,-0 502.162,248.201 759.775,375.529c37.582,18.576 65.353,52.427 76.225,92.916c10.873,40.488 3.795,83.697 -19.427,118.601c-19.979,30.029 -40.208,60.433 -57.228,86.015c-27.036,40.636 -72.608,65.053 -121.416,65.053c-157.142,0 -496.54,0 -496.54,0l543.905,0c20.29,0 40.357,4.234 58.917,12.431c64.031,28.28 215.088,94.995 215.088,94.995m-959.299,-845.54c0,-0 548.987,271.355 793.391,392.161c65.753,32.5 145.413,11.108 186.039,-49.959c53.813,-80.888 118.536,-178.177 118.536,-178.177m-1150.69,-316.567c0,0 18.165,52.555 33.171,95.969c12.529,36.248 38.833,66.102 73.214,83.095c67.48,33.353 174.615,86.306 174.615,86.306m602.712,452.553c-0,0 -14.236,21.396 -32.686,49.128c-20.426,30.701 -26.254,68.856 -15.925,104.255c10.33,35.4 35.763,64.432 69.495,79.33c65.27,28.827 141.968,62.701 201.137,88.833c55.666,24.585 120.948,5.51 154.621,-45.178c77.478,-116.631 214.197,-322.44 296.695,-446.628c38.095,-57.346 22.648,-134.7 -34.55,-173.018c-54.513,-36.518 -110.198,-73.822 -110.198,-73.822m-643.512,589.833c-0,0 543.662,239.858 769.607,339.543c55.814,24.624 121.251,5.363 154.824,-45.573c56.461,-85.66 133.701,-202.845 133.701,-202.845m-1058.13,-91.125l-574.675,0m1264.9,304.521c0,0 -59.364,-26.144 -121.024,-53.3c-33.754,-14.865 -59.221,-43.88 -69.584,-79.277c-10.362,-35.398 -4.563,-73.565 15.846,-104.287c56.59,-85.188 207.761,-312.752 272.258,-409.842c18.391,-27.685 47.05,-46.905 79.642,-53.413c32.593,-6.509 66.435,0.231 94.048,18.729c78.625,52.67 172.993,115.888 172.993,115.888l-190.962,-127.926m-1855.78,-57.803c-0,0 68.875,-102.261 125.024,-185.626c40.796,-60.572 120.106,-81.628 185.574,-49.269c126.03,62.292 311.161,153.796 311.161,153.796m-76.302,-820.249c-0,-0 144.517,299.133 215.039,445.106c6.974,14.436 21.613,23.59 37.645,23.541c16.033,-0.049 30.615,-9.293 37.501,-23.771c69.462,-146.057 211.574,-444.876 211.574,-444.876" style="fill:none;stroke:#1d3023;stroke-width:166.67px;"/></g></g></svg>